<svg id="Layer_1" data-name="Layer 1" xmlns="http://www.w3.org/2000/svg" viewBox="0 0 1778 474"><defs><style>.cls-1{fill:#87c1c7;}.cls-2{fill:#00838d;}</style></defs><title>HOLO_LOGO_MASTER</title><path class="cls-1" d="M210.83,292.29c-1.25,2.88-2.39,5.53-3.54,8.17-2,4.61-4,9.22-6.07,13.82-.25.58-.05.81.44.9a21.24,21.24,0,0,0,2.74.38c2.57.1,5.15.15,7.73.19a52.63,52.63,0,0,0,5.33,0c3.12-.27,6.24-.62,9.33-1.11,3.24-.52,6.48-1.09,9.64-1.91a91.41,91.41,0,0,0,16.41-5.94,76.72,76.72,0,0,0,12.6-7.29c3.32-2.44,6.58-5,9.7-7.67a52.57,52.57,0,0,0,5.65-5.81c2.33-2.75,4.58-5.57,6.66-8.5a64.35,64.35,0,0,0,6.71-12.17,73.73,73.73,0,0,0,4.81-15.8H300c6.36,0,12.72,0,19.08,0,.91,0,1.4.16,1.37,1.2a7.88,7.88,0,0,0,.35,1.61,70.15,70.15,0,0,0,5.05,15.14,75.75,75.75,0,0,0,6.57,11.42,83.49,83.49,0,0,0,8.79,10.61,60.62,60.62,0,0,0,4.65,4.27c2.47,2,5,4.06,7.56,5.91a84.1,84.1,0,0,0,15.76,8.78,82.17,82.17,0,0,0,14.35,4.85c4.09.91,8.23,1.65,12.38,2.25a74.87,74.87,0,0,0,9.22.73c3.43.06,6.88-.16,10.31-.36a35,35,0,0,0,4.1-.72c-1.49-3.36-2.92-6.55-4.32-9.75-1.73-4-3.43-8-5.17-12a.73.73,0,0,0-.52-.39c-1-.1-2-.14-3-.21-2.65-.18-5.3-.33-7.94-.57a57.56,57.56,0,0,1-12.45-2.73,64.83,64.83,0,0,1-12.11-5.37,60.65,60.65,0,0,1-12.41-9.25,39.23,39.23,0,0,1-3.25-3.45c-1.66-2-3.3-4.07-4.77-6.22a50.56,50.56,0,0,1-5.92-11.94c-.42-1.2-.71-2.44-1.1-3.79h14.66c1.62,0,2-.3,2.6-1.75,2-4.73,4.1-9.45,6.15-14.18.95-2.19,1.89-4.37,2.85-6.57a2,2,0,0,0-.34-.21,28.08,28.08,0,0,0-9.16-1.48c-5.23-.11-10.47,0-15.71,0h-1.06a7.15,7.15,0,0,1,.17-1,56,56,0,0,1,4.8-11.73,58.73,58.73,0,0,1,9.23-12.2c1.41-1.46,3-2.72,4.57-4a57.4,57.4,0,0,1,12-7.77,64.5,64.5,0,0,1,11.05-4.25A70.23,70.23,0,0,1,407,181.62a6.7,6.7,0,0,0,1.68,0c.71-.21,1.67.22,2.1-.79.64-1.53,1.34-3,2-4.56q2.75-6.33,5.48-12.67l1.73-4c-.16-.14-.23-.24-.31-.25-2.3-.34-4.6-.8-6.92-1s-4.69-.06-7,0c-1.58,0-3.16.06-4.73.19-2.45.2-4.91.39-7.35.76a82,82,0,0,0-8.66,1.63c-3.85,1-7.67,2.12-11.42,3.45A83.06,83.06,0,0,0,357.82,172a86.94,86.94,0,0,0-13.57,10.18,67.66,67.66,0,0,0-5.71,5.9c-2.33,2.74-4.57,5.57-6.66,8.5A63.23,63.23,0,0,0,326,206.9a75.08,75.08,0,0,0-4.78,13.59c-.39,1.59-.7,3.2-1.05,4.82-6.82,0-13.56,0-20.29,0a1.06,1.06,0,0,1-.8-.63c-.55-2.23-1-4.49-1.54-6.71a70.16,70.16,0,0,0-8.24-19,80.66,80.66,0,0,0-13.07-16.15c-1-.92-2-1.79-3-2.62-2.26-1.81-4.49-3.66-6.83-5.35a86.13,86.13,0,0,0-16.72-9.34,96.67,96.67,0,0,0-13-4.48,99.37,99.37,0,0,0-21.19-3.16,69.53,69.53,0,0,0-13.37.56,16.26,16.26,0,0,0-2.1.58c1,2.31,2,4.47,2.9,6.64,1.16,2.67,2.3,5.35,3.46,8,1,2.28,2,4.56,3,6.82.11.25.36.56.59.6a16.55,16.55,0,0,0,2.12.22c2.86.19,5.73.31,8.59.58a53.45,53.45,0,0,1,10.75,2.35,61.11,61.11,0,0,1,12.21,5.34,50.25,50.25,0,0,1,10.26,7.5,76.83,76.83,0,0,1,6.85,7.57,51.66,51.66,0,0,1,9.17,18.62c.19.66.28,1.34.44,2.11h-1.28c-4.86,0-9.73,0-14.59,0a2.34,2.34,0,0,0-1.57.64,6.78,6.78,0,0,0-.92,1.89L245.89,242l-2.54,5.9a2.78,2.78,0,0,0,.44.28,9.07,9.07,0,0,0,.89.26,41.66,41.66,0,0,0,9.7,1.11c3.93,0,7.86,0,11.79,0H270a7.37,7.37,0,0,1-.16,1,58.89,58.89,0,0,1-5.05,12.41A57.14,57.14,0,0,1,255.64,275a55.51,55.51,0,0,1-5.26,4.53,59.28,59.28,0,0,1-21.2,10.58,64.46,64.46,0,0,1-11.93,2.13C215.13,292.43,213,292.29,210.83,292.29Z"/><path class="cls-2" d="M210.83,292.29c2.14,0,4.3.14,6.42,0a64.46,64.46,0,0,0,11.93-2.13,59.28,59.28,0,0,0,21.2-10.58,55.51,55.51,0,0,0,5.26-4.53,57.14,57.14,0,0,0,9.19-12.11,58.89,58.89,0,0,0,5.05-12.41,7.37,7.37,0,0,0,.16-1h-3.87c-3.93,0-7.86,0-11.79,0a41.66,41.66,0,0,1-9.7-1.11,9.07,9.07,0,0,1-.89-.26,2.78,2.78,0,0,1-.44-.28l2.54-5.9,6.12-14.1a6.78,6.78,0,0,1,.92-1.89,2.34,2.34,0,0,1,1.57-.64c4.86-.05,9.73,0,14.59,0h1.28c-.16-.77-.25-1.45-.44-2.11a51.66,51.66,0,0,0-9.17-18.62,76.83,76.83,0,0,0-6.85-7.57,50.25,50.25,0,0,0-10.26-7.5,61.11,61.11,0,0,0-12.21-5.34,53.45,53.45,0,0,0-10.75-2.35c-2.86-.27-5.73-.39-8.59-.58A16.55,16.55,0,0,1,210,181c-.23,0-.48-.35-.59-.6-1-2.26-2-4.54-3-6.82-1.16-2.67-2.3-5.35-3.46-8-.94-2.17-1.89-4.33-2.9-6.64a16.26,16.26,0,0,1,2.1-.58,69.53,69.53,0,0,1,13.37-.56A99.37,99.37,0,0,1,236.66,161a96.67,96.67,0,0,1,13,4.48,86.13,86.13,0,0,1,16.72,9.34c2.34,1.69,4.57,3.54,6.83,5.35,1,.83,2,1.7,3,2.62A80.66,80.66,0,0,1,289.3,198.9a70.16,70.16,0,0,1,8.24,19c.57,2.22,1,4.48,1.54,6.71a1.06,1.06,0,0,0,.8.63c6.73,0,13.47,0,20.29,0,.35-1.62.66-3.23,1.05-4.82A75.08,75.08,0,0,1,326,206.9a63.23,63.23,0,0,1,5.88-10.32c2.09-2.93,4.33-5.76,6.66-8.5a67.66,67.66,0,0,1,5.71-5.9A86.94,86.94,0,0,1,357.82,172a83.06,83.06,0,0,1,15.73-7.63c3.75-1.33,7.57-2.46,11.42-3.45a82,82,0,0,1,8.66-1.63c2.44-.37,4.9-.56,7.35-.76,1.57-.13,3.15-.17,4.73-.19,2.35,0,4.71-.14,7,0s4.62.62,6.92,1c.08,0,.15.11.31.25l-1.73,4q-2.73,6.35-5.48,12.67c-.66,1.53-1.36,3-2,4.56-.43,1-1.39.58-2.1.79a6.7,6.7,0,0,1-1.68,0,70.23,70.23,0,0,0-18.55,2.72,64.5,64.5,0,0,0-11.05,4.25,57.4,57.4,0,0,0-12,7.77c-1.54,1.33-3.16,2.59-4.57,4a58.73,58.73,0,0,0-9.23,12.2,56,56,0,0,0-4.8,11.73,7.15,7.15,0,0,0-.17,1h1.06c5.24,0,10.48-.08,15.71,0a28.08,28.08,0,0,1,9.16,1.48,2,2,0,0,1,.34.21c-1,2.2-1.9,4.38-2.85,6.57-2.05,4.73-4.12,9.45-6.15,14.18-.63,1.45-1,1.75-2.6,1.75H346.66c.39,1.35.68,2.59,1.1,3.79a50.56,50.56,0,0,0,5.92,11.94c1.47,2.15,3.11,4.19,4.77,6.22a39.23,39.23,0,0,0,3.25,3.45,60.65,60.65,0,0,0,12.41,9.25,64.83,64.83,0,0,0,12.11,5.37,57.56,57.56,0,0,0,12.45,2.73c2.64.24,5.29.39,7.94.57,1,.07,2,.11,3,.21a.73.73,0,0,1,.52.39c1.74,4,3.44,8,5.17,12,1.4,3.2,2.83,6.39,4.32,9.75a35,35,0,0,1-4.1.72c-3.43.2-6.88.42-10.31.36a74.87,74.87,0,0,1-9.22-.73c-4.15-.6-8.29-1.34-12.38-2.25a82.17,82.17,0,0,1-14.35-4.85,84.1,84.1,0,0,1-15.76-8.78c-2.6-1.85-5.09-3.87-7.56-5.91a60.62,60.62,0,0,1-4.65-4.27,83.49,83.49,0,0,1-8.79-10.61,75.75,75.75,0,0,1-6.57-11.42,70.15,70.15,0,0,1-5.05-15.14,7.88,7.88,0,0,1-.35-1.61c0-1-.46-1.2-1.37-1.2-6.36,0-12.72,0-19.08,0H299a73.73,73.73,0,0,1-4.81,15.8,64.35,64.35,0,0,1-6.71,12.17c-2.08,2.93-4.33,5.75-6.66,8.5a52.57,52.57,0,0,1-5.65,5.81c-3.12,2.69-6.38,5.23-9.7,7.67a76.72,76.72,0,0,1-12.6,7.29,91.41,91.41,0,0,1-16.41,5.94c-3.16.82-6.4,1.39-9.64,1.91-3.09.49-6.21.84-9.33,1.11a52.63,52.63,0,0,1-5.33,0c-2.58,0-5.16-.09-7.73-.19a21.24,21.24,0,0,1-2.74-.38c-.49-.09-.69-.32-.44-.9,2-4.6,4.05-9.21,6.07-13.82C208.44,297.82,209.58,295.17,210.83,292.29Z"/><path d="M585.14,161.14h21.22v63.43h76.72V161.14h21.43V312.86H683.08V243.43H606.36v69.43H585.14Z"/><path d="M1027.25,236.78a83.22,83.22,0,0,1-6.11,32.26,76.41,76.41,0,0,1-16.83,25.29,75.5,75.5,0,0,1-25.5,16.5,90.36,90.36,0,0,1-64.18,0A74.36,74.36,0,0,1,872.52,269a90.26,90.26,0,0,1,0-64.72,72.71,72.71,0,0,1,16.72-25.07,75.87,75.87,0,0,1,25.39-16.18,91.82,91.82,0,0,1,64.18,0,75.66,75.66,0,0,1,25.5,16.18,74,74,0,0,1,16.83,25.07A83.77,83.77,0,0,1,1027.25,236.78Zm-22.94,0a67.13,67.13,0,0,0-4.07-23.46,59.62,59.62,0,0,0-11.57-19.4,54,54,0,0,0-18.11-13.17,61,61,0,0,0-47.57,0,52.92,52.92,0,0,0-18,13.17,60.62,60.62,0,0,0-11.47,19.4,67.36,67.36,0,0,0-4.07,23.46,68.81,68.81,0,0,0,4.07,23.79A58.09,58.09,0,0,0,905.09,280a53.75,53.75,0,0,0,18,13,56.84,56.84,0,0,0,23.58,4.72,58.37,58.37,0,0,0,23.79-4.72,53.22,53.22,0,0,0,18.21-13,58.09,58.09,0,0,0,11.57-19.4A68.57,68.57,0,0,0,1004.31,236.78Z"/><path d="M1210.26,294H1278v18.86H1189V161.14h21.22Z"/><path d="M1578,236.78a83.22,83.22,0,0,1-6.11,32.26,76.54,76.54,0,0,1-16.82,25.29,75.5,75.5,0,0,1-25.5,16.5,90.39,90.39,0,0,1-64.19,0A74.36,74.36,0,0,1,1423.27,269a90.26,90.26,0,0,1,0-64.72A72.85,72.85,0,0,1,1440,179.25a76,76,0,0,1,25.39-16.18,91.85,91.85,0,0,1,64.19,0,75.66,75.66,0,0,1,25.5,16.18,74.09,74.09,0,0,1,16.82,25.07A83.77,83.77,0,0,1,1578,236.78Zm-22.93,0a67.36,67.36,0,0,0-4.07-23.46,59.79,59.79,0,0,0-11.57-19.4,54.15,54.15,0,0,0-18.11-13.17,61,61,0,0,0-47.58,0,52.92,52.92,0,0,0-18,13.17,60.6,60.6,0,0,0-11.46,19.4,67.13,67.13,0,0,0-4.07,23.46,68.57,68.57,0,0,0,4.07,23.79,57.92,57.92,0,0,0,11.57,19.4,53.75,53.75,0,0,0,18,13,56.83,56.83,0,0,0,23.57,4.72,58.31,58.31,0,0,0,23.79-4.72,53.36,53.36,0,0,0,18.22-13,58.25,58.25,0,0,0,11.57-19.4A68.81,68.81,0,0,0,1555.07,236.78Z"/></svg>